<?xml version="1.0" encoding="UTF-8" standalone="no"?>
<!DOCTYPE svg PUBLIC "-//W3C//DTD SVG 1.0//EN" "http://www.w3.org/TR/2001/PR-SVG-20010719/DTD/svg10.dtd">
<svg width="31cm" height="25cm" viewBox="1 3 31 25">
  <text style="fill: #000000; text-anchor:start; font-size: 0.8; font-family: sans; font-style: normal; font-weight: normal" x="1.4" y="8.8"></text>
  <polygon style="fill: #ffffff" points="13.3,12.3 13.8,11.8 16.4,11.8 16.4,13.8 15.9,14.3 13.3,14.3 13.3,12.3 "/>
  <polygon style="fill: none; fill-opacity:0; stroke-width: 0.1; stroke: #000000" points="13.3,12.3 13.8,11.8 16.4,11.8 16.4,13.8 15.9,14.3 13.3,14.3 13.3,12.3 "/>
  <line style="fill: none; fill-opacity:0; stroke-width: 0.1; stroke: #000000" x1="13.3" y1="12.3" x2="15.9" y2="12.3"/>
  <line style="fill: none; fill-opacity:0; stroke-width: 0.1; stroke: #000000" x1="15.9" y1="12.3" x2="16.4" y2="11.8"/>
  <line style="fill: none; fill-opacity:0; stroke-width: 0.1; stroke: #000000" x1="15.9" y1="12.3" x2="15.9" y2="14.3"/>
  <text style="fill: #000000; text-anchor:start; font-size: 1; font-family: sans; font-style: normal; font-weight: normal" x="13.8" y="13.55">Main</text>
  <line style="fill: none; fill-opacity:0; stroke-width: 0.05; stroke: #000000" x1="13.8" y1="13.75" x2="15.4" y2="13.75"/>
  <polygon style="fill: #ffffff" points="6.17568,6.54037 6.67568,6.04037 10.9757,6.04037 10.9757,7.84037 10.4757,8.34037 6.17568,8.34037 6.17568,6.54037 "/>
  <polygon style="fill: none; fill-opacity:0; stroke-width: 0.1; stroke: #000000" points="6.17568,6.54037 6.67568,6.04037 10.9757,6.04037 10.9757,7.84037 10.4757,8.34037 6.17568,8.34037 6.17568,6.54037 "/>
  <line style="fill: none; fill-opacity:0; stroke-width: 0.1; stroke: #000000" x1="6.17568" y1="6.54037" x2="10.4757" y2="6.54037"/>
  <line style="fill: none; fill-opacity:0; stroke-width: 0.1; stroke: #000000" x1="10.4757" y1="6.54037" x2="10.9757" y2="6.04037"/>
  <line style="fill: none; fill-opacity:0; stroke-width: 0.1; stroke: #000000" x1="10.4757" y1="6.54037" x2="10.4757" y2="8.34037"/>
  <text style="fill: #000000; text-anchor:start; font-size: 0.8; font-family: sans; font-style: normal; font-weight: normal" x="6.67568" y="7.64037">MapLoader</text>
  <line style="fill: none; fill-opacity:0; stroke-width: 0.05; stroke: #000000" x1="6.67568" y1="7.79037" x2="9.97568" y2="7.79037"/>
  <polygon style="fill: #ffffff" points="11.7541,5.68899 12.2541,5.18899 16.6041,5.18899 16.6041,6.98899 16.1041,7.48899 11.7541,7.48899 11.7541,5.68899 "/>
  <polygon style="fill: none; fill-opacity:0; stroke-width: 0.1; stroke: #000000" points="11.7541,5.68899 12.2541,5.18899 16.6041,5.18899 16.6041,6.98899 16.1041,7.48899 11.7541,7.48899 11.7541,5.68899 "/>
  <line style="fill: none; fill-opacity:0; stroke-width: 0.1; stroke: #000000" x1="11.7541" y1="5.68899" x2="16.1041" y2="5.68899"/>
  <line style="fill: none; fill-opacity:0; stroke-width: 0.1; stroke: #000000" x1="16.1041" y1="5.68899" x2="16.6041" y2="5.18899"/>
  <line style="fill: none; fill-opacity:0; stroke-width: 0.1; stroke: #000000" x1="16.1041" y1="5.68899" x2="16.1041" y2="7.48899"/>
  <text style="fill: #000000; text-anchor:start; font-size: 0.8; font-family: sans; font-style: normal; font-weight: normal" x="12.2541" y="6.78899">SkinLoader</text>
  <line style="fill: none; fill-opacity:0; stroke-width: 0.05; stroke: #000000" x1="12.2541" y1="6.93899" x2="15.6041" y2="6.93899"/>
  <polygon style="fill: #ffffff" points="21.1142,8.2812 21.6142,7.7812 27.0142,7.7812 27.0142,9.5812 26.5142,10.0812 21.1142,10.0812 21.1142,8.2812 "/>
  <polygon style="fill: none; fill-opacity:0; stroke-width: 0.1; stroke: #000000" points="21.1142,8.2812 21.6142,7.7812 27.0142,7.7812 27.0142,9.5812 26.5142,10.0812 21.1142,10.0812 21.1142,8.2812 "/>
  <line style="fill: none; fill-opacity:0; stroke-width: 0.1; stroke: #000000" x1="21.1142" y1="8.2812" x2="26.5142" y2="8.2812"/>
  <line style="fill: none; fill-opacity:0; stroke-width: 0.1; stroke: #000000" x1="26.5142" y1="8.2812" x2="27.0142" y2="7.7812"/>
  <line style="fill: none; fill-opacity:0; stroke-width: 0.1; stroke: #000000" x1="26.5142" y1="8.2812" x2="26.5142" y2="10.0812"/>
  <text style="fill: #000000; text-anchor:start; font-size: 0.8; font-family: sans; font-style: normal; font-weight: normal" x="21.6142" y="9.3812">DifficultyDialog</text>
  <line style="fill: none; fill-opacity:0; stroke-width: 0.05; stroke: #000000" x1="21.6142" y1="9.5312" x2="26.0142" y2="9.5312"/>
  <polygon style="fill: #ffffff" points="11.8294,17.6459 12.3294,17.1459 18.0294,17.1459 18.0294,18.9459 17.5294,19.4459 11.8294,19.4459 11.8294,17.6459 "/>
  <polygon style="fill: none; fill-opacity:0; stroke-width: 0.1; stroke: #000000" points="11.8294,17.6459 12.3294,17.1459 18.0294,17.1459 18.0294,18.9459 17.5294,19.4459 11.8294,19.4459 11.8294,17.6459 "/>
  <line style="fill: none; fill-opacity:0; stroke-width: 0.1; stroke: #000000" x1="11.8294" y1="17.6459" x2="17.5294" y2="17.6459"/>
  <line style="fill: none; fill-opacity:0; stroke-width: 0.1; stroke: #000000" x1="17.5294" y1="17.6459" x2="18.0294" y2="17.1459"/>
  <line style="fill: none; fill-opacity:0; stroke-width: 0.1; stroke: #000000" x1="17.5294" y1="17.6459" x2="17.5294" y2="19.4459"/>
  <text style="fill: #000000; text-anchor:start; font-size: 0.8; font-family: sans; font-style: normal; font-weight: normal" x="12.3294" y="18.7459">GameController</text>
  <line style="fill: none; fill-opacity:0; stroke-width: 0.05; stroke: #000000" x1="12.3294" y1="18.8959" x2="17.0294" y2="18.8959"/>
  <ellipse style="fill: #ffffff" cx="6.28235" cy="13.1585" rx="0.3" ry="0.3"/>
  <ellipse style="fill: none; fill-opacity:0; stroke-width: 0.1; stroke: #000000" cx="6.28235" cy="13.1585" rx="0.3" ry="0.3"/>
  <line style="fill: none; fill-opacity:0; stroke-width: 0.1; stroke: #000000" x1="5.08235" y1="13.7585" x2="7.48235" y2="13.7585"/>
  <line style="fill: none; fill-opacity:0; stroke-width: 0.1; stroke: #000000" x1="6.28235" y1="13.4585" x2="6.28235" y2="14.9585"/>
  <line style="fill: none; fill-opacity:0; stroke-width: 0.1; stroke: #000000" x1="6.28235" y1="14.9585" x2="5.08235" y2="16.2585"/>
  <line style="fill: none; fill-opacity:0; stroke-width: 0.1; stroke: #000000" x1="6.28235" y1="14.9585" x2="7.48235" y2="16.2585"/>
  <text style="fill: #000000; text-anchor:middle; font-size: 0.8; font-family: sans; font-style: normal; font-weight: normal" x="6.28235" y="17.4585">User</text>
  <polygon style="fill: #ffffff" points="13.3185,22.84 13.8185,22.34 16.6685,22.34 16.6685,24.14 16.1685,24.64 13.3185,24.64 13.3185,22.84 "/>
  <polygon style="fill: none; fill-opacity:0; stroke-width: 0.1; stroke: #000000" points="13.3185,22.84 13.8185,22.34 16.6685,22.34 16.6685,24.14 16.1685,24.64 13.3185,24.64 13.3185,22.84 "/>
  <line style="fill: none; fill-opacity:0; stroke-width: 0.1; stroke: #000000" x1="13.3185" y1="22.84" x2="16.1685" y2="22.84"/>
  <line style="fill: none; fill-opacity:0; stroke-width: 0.1; stroke: #000000" x1="16.1685" y1="22.84" x2="16.6685" y2="22.34"/>
  <line style="fill: none; fill-opacity:0; stroke-width: 0.1; stroke: #000000" x1="16.1685" y1="22.84" x2="16.1685" y2="24.64"/>
  <text style="fill: #000000; text-anchor:start; font-size: 0.8; font-family: sans; font-style: normal; font-weight: normal" x="13.8185" y="23.94">Snake</text>
  <line style="fill: none; fill-opacity:0; stroke-width: 0.05; stroke: #000000" x1="13.8185" y1="24.09" x2="15.6685" y2="24.09"/>
  <polygon style="fill: #ffffff" points="22.958,20.756 23.458,20.256 25.658,20.256 25.658,22.056 25.158,22.556 22.958,22.556 22.958,20.756 "/>
  <polygon style="fill: none; fill-opacity:0; stroke-width: 0.1; stroke: #000000" points="22.958,20.756 23.458,20.256 25.658,20.256 25.658,22.056 25.158,22.556 22.958,22.556 22.958,20.756 "/>
  <line style="fill: none; fill-opacity:0; stroke-width: 0.1; stroke: #000000" x1="22.958" y1="20.756" x2="25.158" y2="20.756"/>
  <line style="fill: none; fill-opacity:0; stroke-width: 0.1; stroke: #000000" x1="25.158" y1="20.756" x2="25.658" y2="20.256"/>
  <line style="fill: none; fill-opacity:0; stroke-width: 0.1; stroke: #000000" x1="25.158" y1="20.756" x2="25.158" y2="22.556"/>
  <text style="fill: #000000; text-anchor:start; font-size: 0.8; font-family: sans; font-style: normal; font-weight: normal" x="23.458" y="21.856">Map</text>
  <line style="fill: none; fill-opacity:0; stroke-width: 0.05; stroke: #000000" x1="23.458" y1="22.006" x2="24.658" y2="22.006"/>
  <polygon style="fill: #ffffff" points="22.5028,15.7748 23.0028,15.2748 26.9028,15.2748 26.9028,17.0748 26.4028,17.5748 22.5028,17.5748 22.5028,15.7748 "/>
  <polygon style="fill: none; fill-opacity:0; stroke-width: 0.1; stroke: #000000" points="22.5028,15.7748 23.0028,15.2748 26.9028,15.2748 26.9028,17.0748 26.4028,17.5748 22.5028,17.5748 22.5028,15.7748 "/>
  <line style="fill: none; fill-opacity:0; stroke-width: 0.1; stroke: #000000" x1="22.5028" y1="15.7748" x2="26.4028" y2="15.7748"/>
  <line style="fill: none; fill-opacity:0; stroke-width: 0.1; stroke: #000000" x1="26.4028" y1="15.7748" x2="26.9028" y2="15.2748"/>
  <line style="fill: none; fill-opacity:0; stroke-width: 0.1; stroke: #000000" x1="26.4028" y1="15.7748" x2="26.4028" y2="17.5748"/>
  <text style="fill: #000000; text-anchor:start; font-size: 0.8; font-family: sans; font-style: normal; font-weight: normal" x="23.0028" y="16.8748">GFXBuffer</text>
  <line style="fill: none; fill-opacity:0; stroke-width: 0.05; stroke: #000000" x1="23.0028" y1="17.0248" x2="25.9028" y2="17.0248"/>
  <polygon style="fill: #ffffff" points="16.7835,5.66604 17.2835,5.16604 22.7335,5.16604 22.7335,6.96604 22.2335,7.46604 16.7835,7.46604 16.7835,5.66604 "/>
  <polygon style="fill: none; fill-opacity:0; stroke-width: 0.1; stroke: #000000" points="16.7835,5.66604 17.2835,5.16604 22.7335,5.16604 22.7335,6.96604 22.2335,7.46604 16.7835,7.46604 16.7835,5.66604 "/>
  <line style="fill: none; fill-opacity:0; stroke-width: 0.1; stroke: #000000" x1="16.7835" y1="5.66604" x2="22.2335" y2="5.66604"/>
  <line style="fill: none; fill-opacity:0; stroke-width: 0.1; stroke: #000000" x1="22.2335" y1="5.66604" x2="22.7335" y2="5.16604"/>
  <line style="fill: none; fill-opacity:0; stroke-width: 0.1; stroke: #000000" x1="22.2335" y1="5.66604" x2="22.2335" y2="7.46604"/>
  <text style="fill: #000000; text-anchor:start; font-size: 0.8; font-family: sans; font-style: normal; font-weight: normal" x="17.2835" y="6.76604">PlainSkinDialog</text>
  <line style="fill: none; fill-opacity:0; stroke-width: 0.05; stroke: #000000" x1="17.2835" y1="6.91604" x2="21.7335" y2="6.91604"/>
  <line style="fill: none; fill-opacity:0; stroke-width: 0.1; stroke: #000000" x1="8.0002" y1="14.824" x2="12.8322" y2="13.4345"/>
  <polygon style="fill: #000000" points="7.6398,14.9276 8.05124,14.5492 8.0002,14.824 8.18942,15.0297 "/>
  <polygon style="fill: none; fill-opacity:0; stroke-width: 0.1; stroke: #000000" points="7.6398,14.9276 8.05124,14.5492 8.0002,14.824 8.18942,15.0297 "/>
  <polygon style="fill: #000000" points="13.1926,13.3309 12.7811,13.7093 12.8322,13.4345 12.6429,13.2288 "/>
  <polygon style="fill: none; fill-opacity:0; stroke-width: 0.1; stroke: #000000" points="13.1926,13.3309 12.7811,13.7093 12.8322,13.4345 12.6429,13.2288 "/>
  <text style="fill: #000000; text-anchor:start; font-size: 0.8; font-family: sans; font-style: normal; font-weight: normal" x="8.08856" y="14.1739">interact</text>
  <polyline style="fill: none; fill-opacity:0; stroke-width: 0.1; stroke: #000000" points="14.6,14.7868 14.6,15.6978 14.6794,15.6978 14.6794,16.6087 "/>
  <polygon style="fill: #000000" points="14.6,14.4118 14.85,14.9118 14.6,14.7868 14.35,14.9118 "/>
  <polygon style="fill: none; fill-opacity:0; stroke-width: 0.1; stroke: #000000" points="14.6,14.4118 14.85,14.9118 14.6,14.7868 14.35,14.9118 "/>
  <polygon style="fill: #000000" points="14.6794,16.9837 14.4294,16.4837 14.6794,16.6087 14.9294,16.4837 "/>
  <polygon style="fill: none; fill-opacity:0; stroke-width: 0.1; stroke: #000000" points="14.6794,16.9837 14.4294,16.4837 14.6794,16.6087 14.9294,16.4837 "/>
  <text style="fill: #000000; text-anchor:start; font-size: 0.8; font-family: sans; font-style: normal; font-weight: normal" x="15.1101" y="16.778">control</text>
  <text style="fill: #000000; text-anchor:start; font-size: 0.8; font-family: sans; font-style: normal; font-weight: normal" x="12.1744" y="15.3982">results</text>
  <line style="fill: none; fill-opacity:0; stroke-width: 0.1; stroke: #000000" x1="14.6867" y1="19.9326" x2="14.7146" y2="21.8065"/>
  <polygon style="fill: #000000" points="14.6811,19.5577 14.9385,20.0539 14.6867,19.9326 14.4386,20.0614 "/>
  <polygon style="fill: none; fill-opacity:0; stroke-width: 0.1; stroke: #000000" points="14.6811,19.5577 14.9385,20.0539 14.6867,19.9326 14.4386,20.0614 "/>
  <polygon style="fill: #000000" points="14.7202,22.1815 14.4628,21.6853 14.7146,21.8065 14.9627,21.6778 "/>
  <polygon style="fill: none; fill-opacity:0; stroke-width: 0.1; stroke: #000000" points="14.7202,22.1815 14.4628,21.6853 14.7146,21.8065 14.9627,21.6778 "/>
  <text style="fill: #000000; text-anchor:start; font-size: 0.8; font-family: sans; font-style: normal; font-weight: normal" x="14.9698" y="21.5505">control</text>
  <text style="fill: #000000; text-anchor:start; font-size: 0.8; font-family: sans; font-style: normal; font-weight: normal" x="10.8826" y="20.2422">SnakeDied</text>
  <line style="fill: none; fill-opacity:0; stroke-width: 0.1; stroke: #000000" x1="17.1898" y1="23.1194" x2="22.4861" y2="21.7757"/>
  <polygon style="fill: #000000" points="16.8263,23.2116 17.2494,22.8463 17.1898,23.1194 17.3724,23.331 "/>
  <polygon style="fill: none; fill-opacity:0; stroke-width: 0.1; stroke: #000000" points="16.8263,23.2116 17.2494,22.8463 17.1898,23.1194 17.3724,23.331 "/>
  <polygon style="fill: #000000" points="22.8496,21.6835 22.4265,22.0488 22.4861,21.7757 22.3035,21.5641 "/>
  <polygon style="fill: none; fill-opacity:0; stroke-width: 0.1; stroke: #000000" points="22.8496,21.6835 22.4265,22.0488 22.4861,21.7757 22.3035,21.5641 "/>
  <text style="fill: #000000; text-anchor:start; font-size: 0.8; font-family: sans; font-style: normal; font-weight: normal" x="17.3496" y="24.1643">map state</text>
  <text style="fill: #000000; text-anchor:start; font-size: 0.8; font-family: sans; font-style: normal; font-weight: normal" x="19.8661" y="22.0331">affect</text>
  <text style="fill: #000000; text-anchor:start; font-size: 0.8; font-family: sans; font-style: normal; font-weight: normal" x="17.4588" y="20.4184">create </text>
  <line style="fill: none; fill-opacity:0; stroke-width: 0.1; stroke: #000000" x1="24.1976" y1="20.2132" x2="24.4059" y2="18.0593"/>
  <polygon style="fill: #000000" points="24.442,17.6861 24.6427,18.2078 24.4059,18.0593 24.1451,18.1597 "/>
  <polygon style="fill: none; fill-opacity:0; stroke-width: 0.1; stroke: #000000" points="24.442,17.6861 24.6427,18.2078 24.4059,18.0593 24.1451,18.1597 "/>
  <line style="fill: none; fill-opacity:0; stroke-width: 0.1; stroke: #000000" x1="17.5294" y1="19.4459" x2="22.4477" y2="21.1109"/>
  <polygon style="fill: #000000" points="22.8029,21.2311 22.2491,21.3076 22.4477,21.1109 22.4095,20.834 "/>
  <polygon style="fill: none; fill-opacity:0; stroke-width: 0.1; stroke: #000000" points="22.8029,21.2311 22.2491,21.3076 22.4477,21.1109 22.4095,20.834 "/>
  <text style="fill: #000000; text-anchor:start; font-size: 0.8; font-family: sans; font-style: normal; font-weight: normal" x="25.3547" y="18.5606">modify</text>
  <line style="fill: none; fill-opacity:0; stroke-width: 0.1; stroke: #000000" x1="22.5028" y1="16.6748" x2="16.897" y2="14.2809"/>
  <polygon style="fill: #000000" points="16.5521,14.1336 17.1102,14.1001 16.897,14.2809 16.9138,14.5599 "/>
  <polygon style="fill: none; fill-opacity:0; stroke-width: 0.1; stroke: #000000" points="16.5521,14.1336 17.1102,14.1001 16.897,14.2809 16.9138,14.5599 "/>
  <text style="fill: #000000; text-anchor:start; font-size: 0.8; font-family: sans; font-style: normal; font-weight: normal" x="17.2239" y="13.4312">paint component</text>
  <line style="fill: none; fill-opacity:0; stroke-width: 0.1; stroke: #000000" x1="8.32568" y1="8.34037" x2="12.8682" y2="11.931"/>
  <polygon style="fill: #000000" points="13.1624,12.1636 12.6151,12.0496 12.8682,11.931 12.9252,11.6574 "/>
  <polygon style="fill: none; fill-opacity:0; stroke-width: 0.1; stroke: #000000" points="13.1624,12.1636 12.6151,12.0496 12.8682,11.931 12.9252,11.6574 "/>
  <line style="fill: none; fill-opacity:0; stroke-width: 0.1; stroke: #000000" x1="13.9291" y1="7.48899" x2="14.3653" y2="11.2665"/>
  <polygon style="fill: #000000" points="14.4083,11.639 14.1026,11.171 14.3653,11.2665 14.5993,11.1137 "/>
  <polygon style="fill: none; fill-opacity:0; stroke-width: 0.1; stroke: #000000" points="14.4083,11.639 14.1026,11.171 14.3653,11.2665 14.5993,11.1137 "/>
  <line style="fill: none; fill-opacity:0; stroke-width: 0.1; stroke: #000000" x1="19.5085" y1="7.46604" x2="16.2175" y2="11.3775"/>
  <polygon style="fill: #000000" points="15.9761,11.6644 16.1067,11.1209 16.2175,11.3775 16.4893,11.4428 "/>
  <polygon style="fill: none; fill-opacity:0; stroke-width: 0.1; stroke: #000000" points="15.9761,11.6644 16.1067,11.1209 16.2175,11.3775 16.4893,11.4428 "/>
  <line style="fill: none; fill-opacity:0; stroke-width: 0.1; stroke: #000000" x1="23.8142" y1="10.0812" x2="16.9093" y2="12.4933"/>
  <polygon style="fill: #000000" points="16.5552,12.6169 16.9448,12.216 16.9093,12.4933 17.1097,12.6881 "/>
  <polygon style="fill: none; fill-opacity:0; stroke-width: 0.1; stroke: #000000" points="16.5552,12.6169 16.9448,12.216 16.9093,12.4933 17.1097,12.6881 "/>
  <text style="fill: #000000; text-anchor:start; font-size: 0.8; font-family: sans; font-style: normal; font-weight: normal" x="9.50278" y="11.8752">load map</text>
  <text style="fill: #000000; text-anchor:start; font-size: 0.8; font-family: sans; font-style: normal; font-weight: normal" x="12.9083" y="10.6128">load skin</text>
  <text style="fill: #000000; text-anchor:start; font-size: 0.8; font-family: sans; font-style: normal; font-weight: normal" x="15.2863" y="8.35229">customize</text>
  <text style="fill: #000000; text-anchor:start; font-size: 0.8; font-family: sans; font-style: normal; font-weight: normal" x="15.2863" y="9.15229">plain skin</text>
  <text style="fill: #000000; text-anchor:start; font-size: 0.8; font-family: sans; font-style: normal; font-weight: normal" x="17.723" y="11.4349">customize difficulty</text>
  <ellipse style="fill: none; fill-opacity:0; stroke-width: 0.1; stroke-dasharray: 0.6; stroke: #000000" cx="16.5143" cy="8.95" rx="12.25" ry="5.75"/>
  <text style="fill: #000000; text-anchor:start; font-size: 1.5; font-family: sans; font-style: normal; font-weight: normal" x="12.7143" y="4.75">User Interface</text>
  <ellipse style="fill: none; fill-opacity:0; stroke-width: 0.1; stroke-dasharray: 0.4; stroke: #000000" cx="20.9393" cy="20.625" rx="10.725" ry="6.775"/>
  <text style="fill: #000000; text-anchor:start; font-size: 1.5; font-family: sans; font-style: normal; font-weight: normal" x="17.4393" y="26.125">Game Engine</text>
</svg>
